<?xml version="1.0" encoding="utf-8"?>
<!-- Generator: Adobe Illustrator 25.4.1, SVG Export Plug-In . SVG Version: 6.00 Build 0)  -->
<svg version="1.0" id="레이어_1" xmlns="http://www.w3.org/2000/svg" xmlns:xlink="http://www.w3.org/1999/xlink" x="0px"
	 y="0px" viewBox="0 0 425.2 65.4" enable-background="new 0 0 425.2 65.4" xml:space="preserve">
<g>
	<g>
		<path fill="#FFFFFF" d="M330.9,4.1l-10.5,4.4v8.8h-7.3v9.5h7.2v18.4c-0.5,6.5,4.3,12.2,10.8,12.7c0.6,0,1.2,0,1.7,0
			c2.1,0.1,4.1-0.2,6-1v-9.2c-1.1,0.2-2.2,0.3-3.3,0.3c-2.9,0-4.7-1.1-4.7-4.6V26.9h8v-9.5h-8L330.9,4.1L330.9,4.1z"/>
		<polygon fill="#FFFFFF" points="215.5,17.4 208.2,42.9 199.6,17.4 189,17.4 180.4,42.9 173.1,17.4 161.8,17.4 174.4,57 185.8,57 
			194.3,30.3 202.9,57 214.1,57 226.8,17.4 		"/>
		<path fill="#FFFFFF" d="M414.7,4.1v15.6c-2.7-1.8-5.9-2.9-9.1-3.2H405h-1.1c-0.6,0-1.2,0-1.8,0c-8.8,0.7-16,7.4-17.1,16.2
			c-0.2,1.3-0.4,2.7-0.4,4c0,0.1,0,0.3,0,0.4c0,0.4,0,0.7,0,1c0,0.6,0,1.2,0,1.7c1.1,10.2,8.2,18,19.2,18c4,0.1,7.9-1.1,11.1-3.4
			v2.4h0.4h9.9V0L414.7,4.1z M405,48.4L405,48.4c-6.2-0.5-10.8-5.9-10.4-12.1c0.4-5.6,4.8-10,10.4-10.4c5.6,0,10,3.9,10,11
			C414.9,44.1,410.6,48.4,405,48.4z"/>
		<path fill="#FFFFFF" d="M380.6,32.7c-1.5-10.4-11.3-17.7-21.7-16.1c-8.3,1.2-14.9,7.8-16.1,16.1c-0.3,1.5-0.4,3-0.4,4.5
			c0,0.9,0,1.8,0.1,2.8c1.1,10.2,8.2,18,19.1,18c7.9,0.1,15-4.8,17.7-12.3l-9.5-2c-1.4,3.4-4.6,5.6-8.3,5.7c-5.1,0-8.5-4-9.4-9.4
			h28.6c0-0.9,0.1-1.8,0.1-2.8C380.9,35.7,380.8,34.2,380.6,32.7L380.6,32.7z M352.8,32.7c1.5-4.9,6.7-7.7,11.7-6.2
			c3,0.9,5.3,3.2,6.2,6.2H352.8z"/>
		<path fill="#FFFFFF" d="M257.2,20c-1.4-1-3-1.8-4.7-2.4c-1.7-0.7-3.5-1.1-5.3-1.1h-1.1c-11,0.4-19.6,9.6-19.3,20.6
			c0,0.3,0,0.5,0,0.8v0.4c0.2,10.5,8.5,19.1,19,19.6h1.4c3.6-0.2,7.1-1.5,10-3.7V57h10.3V17.4h-10.3V20z M247.2,48.4
			c-6.2-0.3-10.9-5.6-10.6-11.8c0.3-5.7,4.9-10.3,10.6-10.6c5.6,0,9.9,3.9,9.9,11S252.8,48.4,247.2,48.4z"/>
		<path fill="#FFFFFF" d="M295.7,16.3c-4.5-0.1-8.7,2-11.3,5.7v-4.7h-10.7v39.6h10.7V34.1c-0.4-4.1,2.6-7.8,6.6-8.2
			c0.3,0,0.5,0,0.8,0c3.8-0.2,7.2,2.7,7.4,6.6c0,0.4,0,0.9,0,1.3v23.1h10.7V32C310,23.4,305.5,16.3,295.7,16.3z"/>
	</g>
	<g>
		<rect x="36.3" y="16.7" fill="#3A68F8" width="28.3" height="39.2"/>
		<rect x="79.2" y="16.7" fill="#0149DA" width="28.3" height="39.2"/>
		<path fill="#24DFA5" d="M50.5,16.7c-5.3-5.8-12.9-9.5-21.4-9.5C13,7.3,0,20.3,0,36.3s13,29.1,29.1,29.1c8.5,0,16.1-3.6,21.4-9.5
			c-4.8-5.2-7.6-12.1-7.6-19.6S45.7,21.9,50.5,16.7z"/>
		<path fill="none" d="M85.8,36.5v-0.4c0,0.1,0,0.1,0,0.2C85.8,36.4,85.8,36.5,85.8,36.5z"/>
		<path fill="#2C5BF0" d="M114.8,7.3c-8.5,0-16.1,3.6-21.4,9.5c4.8,5.2,7.6,12.1,7.6,19.6s-2.9,14.5-7.6,19.6
			c5.3,5.8,12.9,9.5,21.4,9.5c16.1,0,29.1-13,29.1-29.1S130.9,7.3,114.8,7.3z"/>
		<path fill="#438AFF" d="M85.8,36.3c0-0.1,0-0.1,0-0.2c0.1-7.5,2.9-14.3,7.6-19.4C88.1,10.9,80.5,7.3,72,7.3s-16.1,3.6-21.4,9.5
			c4.8,5.2,7.6,12.1,7.6,19.6s-2.9,14.5-7.6,19.6c5.3,5.8,12.9,9.5,21.4,9.5s16.1-3.6,21.4-9.5c-4.7-5.1-7.6-11.9-7.6-19.4
			C85.8,36.5,85.8,36.4,85.8,36.3z"/>
	</g>
</g>
</svg>
